<?xml version="1.0" standalone="no"?>
<!DOCTYPE svg PUBLIC "-//W3C//DTD SVG 20010904//EN"
 "http://www.w3.org/TR/2001/REC-SVG-20010904/DTD/svg10.dtd">
<svg version="1.0" xmlns="http://www.w3.org/2000/svg"
 width="16.000000pt" height="16.000000pt" viewBox="0 0 16.000000 16.000000"
 preserveAspectRatio="xMidYMid meet">
<metadata>
Created by potrace 1.11, written by Peter Selinger 2001-2013
</metadata>
<g transform="translate(0.000000,16.000000) scale(0.010667,-0.010667)"
fill="#000000" stroke="none">
<path d="M635 1335 c-75 -17 -179 -72 -224 -119 -41 -42 -91 -111 -91 -125 0
-4 -19 -17 -42 -27 -43 -19 -142 -94 -165 -123 -35 -47 -76 -126 -90 -173 -15
-54 -25 -208 -12 -208 3 0 5 -11 4 -25 -2 -14 1 -27 6 -31 5 -3 9 -14 9 -25 0
-11 7 -31 16 -44 9 -13 12 -30 8 -36 -4 -8 -3 -9 4 -5 7 4 12 2 12 -4 0 -6 7
-18 15 -27 8 -8 12 -20 8 -26 -3 -7 -3 -9 2 -5 9 8 45 -34 45 -53 0 -7 3 -10
6 -6 4 3 26 -9 49 -28 23 -19 47 -35 54 -35 7 0 10 -3 8 -7 -3 -5 6 -9 20 -10
14 0 28 -5 32 -11 3 -5 14 -8 24 -6 9 1 17 -1 17 -6 0 -4 13 -6 30 -4 16 2 32
-1 35 -6 4 -6 12 -7 18 -3 20 12 117 12 110 -1 -4 -6 1 -5 10 3 14 11 20 11
34 0 9 -8 14 -9 10 -3 -7 13 40 14 59 2 6 -4 14 -5 18 -1 12 12 116 11 109 -1
-4 -6 1 -5 10 3 14 11 20 11 34 0 9 -8 14 -9 10 -3 -7 13 40 14 59 2 6 -4 14
-5 18 -1 12 12 116 11 109 -1 -4 -6 1 -5 11 3 15 13 19 13 27 0 5 -8 9 -9 9
-3 0 10 31 15 83 15 9 0 17 4 17 10 0 5 9 9 19 9 11 0 26 7 34 15 8 8 17 12
19 10 2 -3 18 8 35 24 18 16 34 26 37 23 3 -3 6 0 6 7 0 7 5 9 10 6 6 -4 9 -3
8 2 -2 4 7 19 19 33 56 64 63 74 63 87 0 7 5 13 10 13 6 0 10 9 10 19 0 11 5
21 10 23 6 2 12 12 15 23 2 11 11 43 19 72 15 54 14 146 -2 198 -17 55 -54
135 -63 135 -5 0 -9 5 -9 11 0 15 -89 107 -120 124 -14 7 -45 23 -70 35 -34
16 -50 31 -64 63 -11 23 -45 67 -76 97 -114 113 -289 162 -445 125z m195 -167
c38 -11 98 -49 126 -80 47 -49 66 -91 73 -159 1 -4 19 -9 42 -13 95 -15 181
-83 222 -175 60 -135 -13 -309 -160 -378 -52 -24 -53 -24 -387 -24 -320 -1
-337 0 -383 21 -243 107 -235 466 12 551 22 7 49 14 59 14 15 0 23 13 35 55
12 43 26 67 70 110 68 67 121 88 211 85 36 -1 72 -4 80 -7z"/>
<path d="M649 977 c-76 -28 -179 -111 -179 -144 0 -7 -4 -13 -8 -13 -5 0 -16
-27 -26 -61 -35 -116 -9 -228 76 -323 l42 -46 197 0 197 0 51 56 c28 30 52 60
52 65 2 14 5 22 18 54 8 19 11 60 9 115 -3 67 -10 95 -30 133 -32 59 -94 118
-156 148 -58 28 -187 36 -243 16z m94 -229 c4 1 7 -2 7 -6 0 -4 29 -23 64 -42
36 -18 63 -37 60 -42 -11 -17 -194 -119 -204 -113 -11 7 -14 193 -4 219 5 14
9 14 37 -1 18 -10 35 -16 40 -15z"/>
</g>
</svg>
